<mxfile host="app.diagrams.net" agent="Mozilla/5.0 (Macintosh; Intel Mac OS X 10_15_7) AppleWebKit/537.36 (KHTML, like Gecko) Chrome/133.0.0.0 Safari/537.36" version="26.1.0">
  <diagram name="Page-1" id="2IfZ2NqurxXKIK4NFpB_">
    <mxGraphModel dx="1176" dy="674" grid="1" gridSize="10" guides="1" tooltips="1" connect="1" arrows="1" fold="1" page="1" pageScale="1" pageWidth="827" pageHeight="1169" math="0" shadow="0">
      <root>
        <mxCell id="0" />
        <mxCell id="1" parent="0" />
        <mxCell id="QoxXJaupq3J8Qy74GWwh-1" value="" style="rounded=0;whiteSpace=wrap;html=1;" vertex="1" parent="1">
          <mxGeometry x="170" y="140" width="560" height="60" as="geometry" />
        </mxCell>
        <mxCell id="QoxXJaupq3J8Qy74GWwh-2" value="User Interface" style="text;html=1;align=center;verticalAlign=middle;whiteSpace=wrap;rounded=0;" vertex="1" parent="1">
          <mxGeometry x="174" y="155" width="110" height="30" as="geometry" />
        </mxCell>
        <mxCell id="QoxXJaupq3J8Qy74GWwh-3" value="Mobile APP" style="rounded=0;whiteSpace=wrap;html=1;" vertex="1" parent="1">
          <mxGeometry x="294" y="150" width="120" height="40" as="geometry" />
        </mxCell>
        <mxCell id="QoxXJaupq3J8Qy74GWwh-4" value="Explorer APP" style="rounded=0;whiteSpace=wrap;html=1;" vertex="1" parent="1">
          <mxGeometry x="424" y="150" width="120" height="40" as="geometry" />
        </mxCell>
        <mxCell id="QoxXJaupq3J8Qy74GWwh-5" value="Desktop APP" style="rounded=0;whiteSpace=wrap;html=1;" vertex="1" parent="1">
          <mxGeometry x="554" y="150" width="120" height="40" as="geometry" />
        </mxCell>
        <mxCell id="QoxXJaupq3J8Qy74GWwh-6" value="" style="rounded=0;whiteSpace=wrap;html=1;" vertex="1" parent="1">
          <mxGeometry x="170" y="282" width="560" height="260" as="geometry" />
        </mxCell>
        <mxCell id="QoxXJaupq3J8Qy74GWwh-7" value="Base Function" style="text;html=1;align=center;verticalAlign=middle;whiteSpace=wrap;rounded=0;" vertex="1" parent="1">
          <mxGeometry x="168" y="283" width="126" height="30" as="geometry" />
        </mxCell>
        <mxCell id="QoxXJaupq3J8Qy74GWwh-13" value="Crypto" style="rounded=0;whiteSpace=wrap;html=1;fillColor=light-dark(#E6E6E6,var(--ge-dark-color, #121212));" vertex="1" parent="1">
          <mxGeometry x="322" y="358" width="120" height="30" as="geometry" />
        </mxCell>
        <mxCell id="QoxXJaupq3J8Qy74GWwh-14" value="NFT" style="rounded=0;whiteSpace=wrap;html=1;fillColor=light-dark(#E6E6E6,var(--ge-dark-color, #121212));" vertex="1" parent="1">
          <mxGeometry x="322" y="388" width="120" height="30" as="geometry" />
        </mxCell>
        <mxCell id="QoxXJaupq3J8Qy74GWwh-15" value="Asset&lt;div&gt;Management&lt;/div&gt;" style="rounded=0;whiteSpace=wrap;html=1;" vertex="1" parent="1">
          <mxGeometry x="322" y="318" width="120" height="40" as="geometry" />
        </mxCell>
        <mxCell id="QoxXJaupq3J8Qy74GWwh-16" value="Send/Receive" style="rounded=0;whiteSpace=wrap;html=1;fillColor=light-dark(#E6E6E6,var(--ge-dark-color, #121212));" vertex="1" parent="1">
          <mxGeometry x="452" y="358" width="120" height="30" as="geometry" />
        </mxCell>
        <mxCell id="QoxXJaupq3J8Qy74GWwh-17" value="Swap" style="rounded=0;whiteSpace=wrap;html=1;fillColor=light-dark(#E6E6E6,var(--ge-dark-color, #121212));" vertex="1" parent="1">
          <mxGeometry x="452" y="388" width="120" height="30" as="geometry" />
        </mxCell>
        <mxCell id="QoxXJaupq3J8Qy74GWwh-18" value="Transaction" style="rounded=0;whiteSpace=wrap;html=1;" vertex="1" parent="1">
          <mxGeometry x="452" y="318" width="120" height="40" as="geometry" />
        </mxCell>
        <mxCell id="QoxXJaupq3J8Qy74GWwh-19" value="Create/Import" style="rounded=0;whiteSpace=wrap;html=1;fillColor=light-dark(#E6E6E6,var(--ge-dark-color, #121212));" vertex="1" parent="1">
          <mxGeometry x="192" y="358" width="120" height="30" as="geometry" />
        </mxCell>
        <mxCell id="QoxXJaupq3J8Qy74GWwh-20" value="Export" style="rounded=0;whiteSpace=wrap;html=1;fillColor=light-dark(#E6E6E6,var(--ge-dark-color, #121212));" vertex="1" parent="1">
          <mxGeometry x="192" y="388" width="120" height="30" as="geometry" />
        </mxCell>
        <mxCell id="QoxXJaupq3J8Qy74GWwh-21" value="Account&lt;div&gt;Management&lt;/div&gt;" style="rounded=0;whiteSpace=wrap;html=1;" vertex="1" parent="1">
          <mxGeometry x="192" y="318" width="120" height="40" as="geometry" />
        </mxCell>
        <mxCell id="QoxXJaupq3J8Qy74GWwh-22" value="价格" style="rounded=0;whiteSpace=wrap;html=1;fillColor=light-dark(#E6E6E6,var(--ge-dark-color, #121212));" vertex="1" parent="1">
          <mxGeometry x="900" y="590" width="120" height="34" as="geometry" />
        </mxCell>
        <mxCell id="QoxXJaupq3J8Qy74GWwh-25" value="History" style="rounded=0;whiteSpace=wrap;html=1;fillColor=light-dark(#E6E6E6,var(--ge-dark-color, #121212));" vertex="1" parent="1">
          <mxGeometry x="452" y="418" width="120" height="30" as="geometry" />
        </mxCell>
        <mxCell id="QoxXJaupq3J8Qy74GWwh-26" value="Preferences" style="rounded=0;whiteSpace=wrap;html=1;fillColor=light-dark(#E6E6E6,var(--ge-dark-color, #121212));" vertex="1" parent="1">
          <mxGeometry x="582" y="358" width="120" height="30" as="geometry" />
        </mxCell>
        <mxCell id="QoxXJaupq3J8Qy74GWwh-27" value="Address Book" style="rounded=0;whiteSpace=wrap;html=1;fillColor=light-dark(#E6E6E6,var(--ge-dark-color, #121212));" vertex="1" parent="1">
          <mxGeometry x="582" y="388" width="120" height="30" as="geometry" />
        </mxCell>
        <mxCell id="QoxXJaupq3J8Qy74GWwh-28" value="Settings" style="rounded=0;whiteSpace=wrap;html=1;" vertex="1" parent="1">
          <mxGeometry x="582" y="318" width="120" height="40" as="geometry" />
        </mxCell>
        <mxCell id="QoxXJaupq3J8Qy74GWwh-29" value="Logs" style="rounded=0;whiteSpace=wrap;html=1;fillColor=light-dark(#E6E6E6,var(--ge-dark-color, #121212));" vertex="1" parent="1">
          <mxGeometry x="582" y="418" width="120" height="30" as="geometry" />
        </mxCell>
        <mxCell id="QoxXJaupq3J8Qy74GWwh-30" value="Networks" style="rounded=0;whiteSpace=wrap;html=1;fillColor=light-dark(#E6E6E6,var(--ge-dark-color, #121212));" vertex="1" parent="1">
          <mxGeometry x="582" y="448" width="120" height="30" as="geometry" />
        </mxCell>
        <mxCell id="QoxXJaupq3J8Qy74GWwh-31" value="DAPP Connection" style="rounded=0;whiteSpace=wrap;html=1;fillColor=light-dark(#E6E6E6,var(--ge-dark-color, #121212));" vertex="1" parent="1">
          <mxGeometry x="192" y="418" width="120" height="30" as="geometry" />
        </mxCell>
        <mxCell id="QoxXJaupq3J8Qy74GWwh-37" value="Application&lt;div&gt;Market&lt;/div&gt;" style="rounded=0;whiteSpace=wrap;html=1;" vertex="1" parent="1">
          <mxGeometry x="827" y="256" width="120" height="40" as="geometry" />
        </mxCell>
        <mxCell id="QoxXJaupq3J8Qy74GWwh-53" value="" style="rounded=0;whiteSpace=wrap;html=1;" vertex="1" parent="1">
          <mxGeometry x="170" y="211" width="560" height="60" as="geometry" />
        </mxCell>
        <mxCell id="QoxXJaupq3J8Qy74GWwh-54" value="Access Control" style="text;html=1;align=center;verticalAlign=middle;whiteSpace=wrap;rounded=0;" vertex="1" parent="1">
          <mxGeometry x="174" y="225" width="110" height="30" as="geometry" />
        </mxCell>
        <mxCell id="QoxXJaupq3J8Qy74GWwh-55" value="Identity Access" style="rounded=0;whiteSpace=wrap;html=1;" vertex="1" parent="1">
          <mxGeometry x="294" y="221" width="120" height="40" as="geometry" />
        </mxCell>
        <mxCell id="QoxXJaupq3J8Qy74GWwh-56" value="Multiple-Factor&lt;div&gt;Authorization&lt;/div&gt;" style="rounded=0;whiteSpace=wrap;html=1;" vertex="1" parent="1">
          <mxGeometry x="424" y="221" width="120" height="40" as="geometry" />
        </mxCell>
        <mxCell id="QoxXJaupq3J8Qy74GWwh-57" value="DAPP Access" style="rounded=0;whiteSpace=wrap;html=1;" vertex="1" parent="1">
          <mxGeometry x="554" y="221" width="120" height="40" as="geometry" />
        </mxCell>
        <mxCell id="QoxXJaupq3J8Qy74GWwh-58" value="Lending" style="rounded=0;whiteSpace=wrap;html=1;fillColor=light-dark(#E6E6E6,var(--ge-dark-color, #121212));" vertex="1" parent="1">
          <mxGeometry x="322" y="470" width="120" height="30" as="geometry" />
        </mxCell>
        <mxCell id="QoxXJaupq3J8Qy74GWwh-59" value="Staking" style="rounded=0;whiteSpace=wrap;html=1;fillColor=light-dark(#E6E6E6,var(--ge-dark-color, #121212));" vertex="1" parent="1">
          <mxGeometry x="322" y="500" width="120" height="30" as="geometry" />
        </mxCell>
        <mxCell id="QoxXJaupq3J8Qy74GWwh-60" value="Defi" style="rounded=0;whiteSpace=wrap;html=1;" vertex="1" parent="1">
          <mxGeometry x="322" y="430" width="120" height="40" as="geometry" />
        </mxCell>
        <mxCell id="QoxXJaupq3J8Qy74GWwh-62" value="" style="rounded=0;whiteSpace=wrap;html=1;" vertex="1" parent="1">
          <mxGeometry x="170" y="722" width="560" height="60" as="geometry" />
        </mxCell>
        <mxCell id="QoxXJaupq3J8Qy74GWwh-63" value="Key Management" style="text;html=1;align=center;verticalAlign=middle;whiteSpace=wrap;rounded=0;" vertex="1" parent="1">
          <mxGeometry x="175" y="735" width="110" height="30" as="geometry" />
        </mxCell>
        <mxCell id="QoxXJaupq3J8Qy74GWwh-64" value="Mnemonic" style="rounded=0;whiteSpace=wrap;html=1;" vertex="1" parent="1">
          <mxGeometry x="288" y="732" width="100" height="40" as="geometry" />
        </mxCell>
        <mxCell id="QoxXJaupq3J8Qy74GWwh-65" value="Signing" style="rounded=0;whiteSpace=wrap;html=1;" vertex="1" parent="1">
          <mxGeometry x="396" y="732" width="100" height="40" as="geometry" />
        </mxCell>
        <mxCell id="QoxXJaupq3J8Qy74GWwh-66" value="Encryption Module" style="rounded=0;whiteSpace=wrap;html=1;" vertex="1" parent="1">
          <mxGeometry x="504" y="732" width="100" height="40" as="geometry" />
        </mxCell>
        <mxCell id="QoxXJaupq3J8Qy74GWwh-67" value="Hardware Wallet Integration" style="rounded=0;whiteSpace=wrap;html=1;" vertex="1" parent="1">
          <mxGeometry x="612" y="732" width="100" height="40" as="geometry" />
        </mxCell>
        <mxCell id="QoxXJaupq3J8Qy74GWwh-70" value="" style="rounded=0;whiteSpace=wrap;html=1;" vertex="1" parent="1">
          <mxGeometry x="170" y="554" width="560" height="106" as="geometry" />
        </mxCell>
        <mxCell id="QoxXJaupq3J8Qy74GWwh-71" value="Blockchain Interact" style="text;html=1;align=center;verticalAlign=middle;whiteSpace=wrap;rounded=0;" vertex="1" parent="1">
          <mxGeometry x="175" y="575" width="110" height="30" as="geometry" />
        </mxCell>
        <mxCell id="QoxXJaupq3J8Qy74GWwh-72" value="Bitcoin" style="rounded=0;whiteSpace=wrap;html=1;" vertex="1" parent="1">
          <mxGeometry x="288" y="564" width="100" height="40" as="geometry" />
        </mxCell>
        <mxCell id="QoxXJaupq3J8Qy74GWwh-73" value="Ethereum" style="rounded=0;whiteSpace=wrap;html=1;" vertex="1" parent="1">
          <mxGeometry x="396" y="564" width="100" height="40" as="geometry" />
        </mxCell>
        <mxCell id="QoxXJaupq3J8Qy74GWwh-74" value="Solana" style="rounded=0;whiteSpace=wrap;html=1;" vertex="1" parent="1">
          <mxGeometry x="504" y="564" width="100" height="40" as="geometry" />
        </mxCell>
        <mxCell id="QoxXJaupq3J8Qy74GWwh-75" value="Polygon" style="rounded=0;whiteSpace=wrap;html=1;" vertex="1" parent="1">
          <mxGeometry x="612" y="564" width="100" height="40" as="geometry" />
        </mxCell>
        <mxCell id="QoxXJaupq3J8Qy74GWwh-76" value="Arbitrum" style="rounded=0;whiteSpace=wrap;html=1;" vertex="1" parent="1">
          <mxGeometry x="288" y="612" width="100" height="40" as="geometry" />
        </mxCell>
        <mxCell id="QoxXJaupq3J8Qy74GWwh-77" value="SUI" style="rounded=0;whiteSpace=wrap;html=1;" vertex="1" parent="1">
          <mxGeometry x="396" y="612" width="100" height="40" as="geometry" />
        </mxCell>
        <mxCell id="QoxXJaupq3J8Qy74GWwh-78" value="Cosmos" style="rounded=0;whiteSpace=wrap;html=1;" vertex="1" parent="1">
          <mxGeometry x="504" y="612" width="100" height="40" as="geometry" />
        </mxCell>
        <mxCell id="QoxXJaupq3J8Qy74GWwh-79" value="..." style="rounded=0;whiteSpace=wrap;html=1;" vertex="1" parent="1">
          <mxGeometry x="612" y="612" width="100" height="40" as="geometry" />
        </mxCell>
      </root>
    </mxGraphModel>
  </diagram>
</mxfile>
